<?xml version="1.0" encoding="UTF-8" standalone="no"?>
<!-- Created with Inkscape (http://www.inkscape.org/) -->

<svg
   width="55mm"
   height="55mm"
   viewBox="0 0 55 55"
   version="1.1"
   id="svg10493"
   inkscape:version="1.1.2 (b8e25be833, 2022-02-05)"
   sodipodi:docname="feliz.svg"
   xmlns:inkscape="http://www.inkscape.org/namespaces/inkscape"
   xmlns:sodipodi="http://sodipodi.sourceforge.net/DTD/sodipodi-0.dtd"
   xmlns="http://www.w3.org/2000/svg"
   xmlns:svg="http://www.w3.org/2000/svg">
  <sodipodi:namedview
     id="namedview10495"
     pagecolor="#ffffff"
     bordercolor="#666666"
     borderopacity="1.0"
     inkscape:pageshadow="2"
     inkscape:pageopacity="0.0"
     inkscape:pagecheckerboard="0"
     inkscape:document-units="mm"
     showgrid="false"
     inkscape:zoom="0.77593294"
     inkscape:cx="225.53495"
     inkscape:cy="149.49746"
     inkscape:window-width="1920"
     inkscape:window-height="1017"
     inkscape:window-x="-8"
     inkscape:window-y="-8"
     inkscape:window-maximized="1"
     inkscape:current-layer="layer1"
     width="55mm" />
  <defs
     id="defs10490" />
  <g
     inkscape:label="Camada 1"
     inkscape:groupmode="layer"
     id="layer1">
    <g
       id="g9989"
       transform="translate(-157.02515,-51.910216)"
       style="fill:#00ccff;stroke:none;stroke-width:0.5;stroke-miterlimit:4;stroke-dasharray:none">
      <path
         id="path891"
         style="fill:#00ccff;stroke:none;stroke-width:0.5;stroke-miterlimit:4;stroke-dasharray:none;paint-order:stroke fill markers"
         d="M 184.64514,55.687491 A 24.865631,24.865673 0 0 0 159.77947,80.553157 24.865631,24.865673 0 0 0 184.64514,105.41882 24.865631,24.865673 0 0 0 209.5108,80.553157 24.865631,24.865673 0 0 0 184.64514,55.687491 Z m 0,3.377054 a 21.488573,21.488609 0 0 1 21.48861,21.488612 21.488573,21.488609 0 0 1 -21.48861,21.488613 21.488573,21.488609 0 0 1 -21.48862,-21.488613 21.488573,21.488609 0 0 1 21.48862,-21.488612 z" />
      <g
         id="g9705"
         transform="translate(-2.2165348)"
         style="fill:#00ccff;stroke:none;stroke-width:0.5;stroke-miterlimit:4;stroke-dasharray:none">
        <path
           id="rect1095"
           style="fill:#00ccff;stroke:none;stroke-width:0.5;stroke-miterlimit:4;stroke-dasharray:none;paint-order:stroke fill markers"
           d="m 180.77651,69.613255 a 1.8788606,1.8788606 0 0 0 -1.87896,1.878439 1.8788606,1.8788606 0 0 0 0.0103,0.187068 v 5.903 a 1.8788606,1.8788606 0 0 0 -0.0103,0.187068 1.8788606,1.8788606 0 0 0 1.87896,1.878954 1.8788606,1.8788606 0 0 0 1.87844,-1.878954 1.8788606,1.8788606 0 0 0 -0.0109,-0.202054 v -5.883363 a 1.8788606,1.8788606 0 0 0 0.0109,-0.191719 1.8788606,1.8788606 0 0 0 -1.87844,-1.878439 z" />
        <path
           id="path1741"
           style="fill:#00ccff;stroke:none;stroke-width:0.5;stroke-miterlimit:4;stroke-dasharray:none;paint-order:stroke fill markers"
           d="m 192.94735,69.613256 a 1.8788606,1.8788606 0 0 0 -1.87897,1.878438 1.8788606,1.8788606 0 0 0 0.0103,0.187068 v 5.903 a 1.8788606,1.8788606 0 0 0 -0.0103,0.187068 1.8788606,1.8788606 0 0 0 1.87897,1.878955 1.8788606,1.8788606 0 0 0 1.87844,-1.878955 1.8788606,1.8788606 0 0 0 -0.0109,-0.202054 v -5.883362 a 1.8788606,1.8788606 0 0 0 0.0109,-0.19172 1.8788606,1.8788606 0 0 0 -1.87844,-1.878438 z" />
      </g>
      <path
         style="color:#000000;fill:#00ccff;stroke:none;stroke-width:0.5;stroke-linecap:round;stroke-miterlimit:4;stroke-dasharray:none"
         d="m 192.7094,84.473849 c 0.50115,-0.160923 1.09169,-0.09316 1.55965,0.147785 0.97349,0.501062 1.34377,1.654269 0.79728,2.751804 0,0 -2.42931,5.66442 -10.19833,6.097278 -3.29725,-0.0054 -5.86402,-1.15086 -7.61328,-2.5 -1.74927,-1.34914 -2.68896,-2.741931 -3.13672,-3.861328 -0.40728,-1.017204 0.0878,-2.171904 1.10547,-2.578125 1.01665,-0.40598 2.16994,0.08891 2.57617,1.105469 0.0575,0.143877 0.72256,1.303021 1.87695,2.193359 1.1544,0.890338 2.74354,1.649076 5.15168,1.653043 5.08038,-0.174501 6.75869,-4.010004 6.75869,-4.010004 0.2399,-0.467838 0.622,-0.838081 1.12244,-0.999281 z"
         id="path5389"
         sodipodi:nodetypes="ccccscccsccc" />
    </g>
  </g>
</svg>
