<?xml version="1.0" encoding="UTF-8" standalone="no"?>
<!-- Created with Inkscape (http://www.inkscape.org/) -->

<svg
   width="55mm"
   height="55mm"
   viewBox="0 0 55 55"
   version="1.1"
   id="svg10493"
   inkscape:version="1.1.2 (b8e25be833, 2022-02-05)"
   sodipodi:docname="muito-triste.svg"
   xmlns:inkscape="http://www.inkscape.org/namespaces/inkscape"
   xmlns:sodipodi="http://sodipodi.sourceforge.net/DTD/sodipodi-0.dtd"
   xmlns="http://www.w3.org/2000/svg"
   xmlns:svg="http://www.w3.org/2000/svg">
  <sodipodi:namedview
     id="namedview10495"
     pagecolor="#ffffff"
     bordercolor="#666666"
     borderopacity="1.0"
     inkscape:pageshadow="2"
     inkscape:pageopacity="0.0"
     inkscape:pagecheckerboard="0"
     inkscape:document-units="mm"
     showgrid="false"
     inkscape:zoom="0.77593294"
     inkscape:cx="396.94152"
     inkscape:cy="149.49746"
     inkscape:window-width="1920"
     inkscape:window-height="1017"
     inkscape:window-x="-8"
     inkscape:window-y="-8"
     inkscape:window-maximized="1"
     inkscape:current-layer="layer1" />
  <defs
     id="defs10490" />
  <g
     inkscape:label="Camada 1"
     inkscape:groupmode="layer"
     id="layer1">
    <g
       id="g9974"
       transform="translate(-100.16701,1.993457)"
       style="fill:#00ccff;stroke:none;stroke-width:0.5;stroke-miterlimit:4;stroke-dasharray:none">
      <path
         id="path1760"
         style="fill:#00ccff;stroke:none;stroke-width:0.5;stroke-miterlimit:4;stroke-dasharray:none;paint-order:stroke fill markers"
         d="M 127.66702,0.640877 A 24.865631,24.865673 0 0 0 102.80135,25.506543 24.865631,24.865673 0 0 0 127.66702,50.372209 24.865631,24.865673 0 0 0 152.53268,25.506543 24.865631,24.865673 0 0 0 127.66702,0.640877 Z m 0,3.377054 A 21.488573,21.488609 0 0 1 149.15563,25.506543 21.488573,21.488609 0 0 1 127.66702,46.995152 21.488573,21.488609 0 0 1 106.17841,25.506543 21.488573,21.488609 0 0 1 127.66702,4.017931 Z" />
      <path
         id="path1764"
         style="fill:#00ccff;stroke:none;stroke-width:0.5;stroke-miterlimit:4;stroke-dasharray:none;paint-order:stroke fill markers"
         d="m 116.85921,38.463923 a 10.885949,9.5457437 0 0 1 10.79572,-8.43205 10.885949,9.5457437 0 0 1 10.79522,8.43205 z m 4.824,-2.54972 h 11.97291 a 7.3155769,6.4149321 0 0 0 -6.00119,-2.75177 7.3155769,6.4149321 0 0 0 -5.97172,2.75177 z" />
      <g
         id="g1780"
         transform="translate(-0.44686244)"
         style="fill:#00ccff;stroke:none;stroke-width:0.5;stroke-miterlimit:4;stroke-dasharray:none">
        <path
           id="path1762"
           style="fill:#00ccff;stroke:none;stroke-width:0.5;stroke-miterlimit:4;stroke-dasharray:none;paint-order:stroke fill markers"
           d="m 122.02912,14.566641 a 1.8788606,1.8788606 0 0 0 -1.87895,1.878439 1.8788606,1.8788606 0 0 0 0.0103,0.187068 v 5.903 a 1.8788606,1.8788606 0 0 0 -0.0103,0.187068 1.8788606,1.8788606 0 0 0 1.87895,1.878954 1.8788606,1.8788606 0 0 0 1.87844,-1.878954 1.8788606,1.8788606 0 0 0 -0.0109,-0.202054 v -5.883363 a 1.8788606,1.8788606 0 0 0 0.0109,-0.191719 1.8788606,1.8788606 0 0 0 -1.87844,-1.878439 z" />
        <path
           id="path1766"
           style="fill:#00ccff;stroke:none;stroke-width:0.5;stroke-miterlimit:4;stroke-dasharray:none;paint-order:stroke fill markers"
           d="m 134.19996,14.566642 a 1.8788606,1.8788606 0 0 0 -1.87896,1.878438 1.8788606,1.8788606 0 0 0 0.0103,0.187068 v 5.903 a 1.8788606,1.8788606 0 0 0 -0.0103,0.187068 1.8788606,1.8788606 0 0 0 1.87896,1.878955 1.8788606,1.8788606 0 0 0 1.87844,-1.878955 1.8788606,1.8788606 0 0 0 -0.0109,-0.202054 V 16.6368 a 1.8788606,1.8788606 0 0 0 0.0109,-0.19172 1.8788606,1.8788606 0 0 0 -1.87844,-1.878438 z" />
      </g>
    </g>
  </g>
</svg>
