<?xml version="1.0" encoding="UTF-8" standalone="no"?>
<!-- Created with Inkscape (http://www.inkscape.org/) -->

<svg
   width="55mm"
   height="55mm"
   viewBox="0 0 55 55"
   version="1.1"
   id="svg10493"
   inkscape:version="1.1.2 (b8e25be833, 2022-02-05)"
   sodipodi:docname="neutro.svg"
   xmlns:inkscape="http://www.inkscape.org/namespaces/inkscape"
   xmlns:sodipodi="http://sodipodi.sourceforge.net/DTD/sodipodi-0.dtd"
   xmlns="http://www.w3.org/2000/svg"
   xmlns:svg="http://www.w3.org/2000/svg">
  <sodipodi:namedview
     id="namedview10495"
     pagecolor="#ffffff"
     bordercolor="#666666"
     borderopacity="1.0"
     inkscape:pageshadow="2"
     inkscape:pageopacity="0.0"
     inkscape:pagecheckerboard="0"
     inkscape:document-units="mm"
     showgrid="false"
     inkscape:zoom="0.77593294"
     inkscape:cx="396.94152"
     inkscape:cy="149.49746"
     inkscape:window-width="1920"
     inkscape:window-height="1017"
     inkscape:window-x="-8"
     inkscape:window-y="-8"
     inkscape:window-maximized="1"
     inkscape:current-layer="layer1" />
  <defs
     id="defs10490" />
  <g
     inkscape:label="Camada 1"
     inkscape:groupmode="layer"
     id="layer1">
    <g
       id="g10408"
       transform="translate(-102.46041,-107.87013)">
      <g
         id="path8646"
         inkscape:transform-center-x="-0.17815367"
         inkscape:transform-center-y="0.74835467"
         style="fill:#00ccff;stroke:none;stroke-width:0.5;stroke-miterlimit:4;stroke-dasharray:none"
         transform="translate(-0.52494976)">
        <path
           style="color:#000000;fill:#00ccff;stroke:none;stroke-width:0.5;stroke-linecap:round;stroke-miterlimit:4;stroke-dasharray:none"
           d="m 120.19727,141.18945 a 2.17854,2.17854 0 0 0 -2.17969,2.17969 2.17854,2.17854 0 0 0 2.17969,2.17773 h 20.57617 a 2.17854,2.17854 0 0 0 2.17968,-2.17773 2.17854,2.17854 0 0 0 -2.17968,-2.17969 z"
           id="path9026" />
      </g>
      <path
         id="path8257"
         style="fill:#00ccff;stroke:none;stroke-width:0.5;stroke-miterlimit:4;stroke-dasharray:none;paint-order:stroke fill markers"
         d="m 129.96041,110.50447 a 24.865631,24.865673 0 0 0 -24.86567,24.86567 24.865631,24.865673 0 0 0 24.86567,24.86566 24.865631,24.865673 0 0 0 24.86566,-24.86566 24.865631,24.865673 0 0 0 -24.86566,-24.86567 z m 0,3.37705 a 21.488573,21.488609 0 0 1 21.48861,21.48862 21.488573,21.488609 0 0 1 -21.48861,21.48861 21.488573,21.488609 0 0 1 -21.48861,-21.48861 21.488573,21.488609 0 0 1 21.48861,-21.48862 z" />
      <g
         id="g9829"
         transform="translate(-0.40049477)"
         style="fill:#00ccff;stroke:none;stroke-width:0.5;stroke-miterlimit:4;stroke-dasharray:none">
        <path
           id="path8259"
           style="fill:#00ccff;stroke:none;stroke-width:0.5;stroke-miterlimit:4;stroke-dasharray:none;paint-order:stroke fill markers"
           d="m 124.27573,124.43023 a 1.8788606,1.8788606 0 0 0 -1.87895,1.87844 1.8788606,1.8788606 0 0 0 0.0103,0.18707 v 5.903 a 1.8788606,1.8788606 0 0 0 -0.0103,0.18707 1.8788606,1.8788606 0 0 0 1.87895,1.87895 1.8788606,1.8788606 0 0 0 1.87844,-1.87895 1.8788606,1.8788606 0 0 0 -0.0108,-0.20205 v -5.88337 a 1.8788606,1.8788606 0 0 0 0.0108,-0.19172 1.8788606,1.8788606 0 0 0 -1.87844,-1.87844 z" />
        <path
           id="path8261"
           style="fill:#00ccff;stroke:none;stroke-width:0.5;stroke-miterlimit:4;stroke-dasharray:none;paint-order:stroke fill markers"
           d="m 136.44657,124.43024 a 1.8788606,1.8788606 0 0 0 -1.87896,1.87843 1.8788606,1.8788606 0 0 0 0.0103,0.18707 v 5.903 a 1.8788606,1.8788606 0 0 0 -0.0103,0.18707 1.8788606,1.8788606 0 0 0 1.87896,1.87895 1.8788606,1.8788606 0 0 0 1.87844,-1.87895 1.8788606,1.8788606 0 0 0 -0.0109,-0.20205 v -5.88337 a 1.8788606,1.8788606 0 0 0 0.0109,-0.19172 1.8788606,1.8788606 0 0 0 -1.87844,-1.87843 z" />
      </g>
    </g>
  </g>
</svg>
